HIERARCHY
ROOT joint_Root
{
	OFFSET 0.0 0.0 0.0
	CHANNELS 6 Xposition Yposition Zposition Zrotation Xrotation Yrotation 
	JOINT Hips
	{
		OFFSET 4.5925 91.4895 -427.239
		CHANNELS 6 Xposition Yposition Zposition Zrotation Xrotation Yrotation 
		JOINT Spine
		{
			OFFSET 15.7357 0.0 0.0
			CHANNELS 6 Xposition Yposition Zposition Zrotation Xrotation Yrotation 
			JOINT Chest
			{
				OFFSET 8.98455 -0.406207 0.0
				CHANNELS 6 Xposition Yposition Zposition Zrotation Xrotation Yrotation 
				JOINT Neck
				{
					OFFSET 16.3773 0.0 0.0
					CHANNELS 6 Xposition Yposition Zposition Zrotation Xrotation Yrotation 
					JOINT Head
					{
						OFFSET 6.45672 0.0 0.0
						CHANNELS 6 Xposition Yposition Zposition Zrotation Xrotation Yrotation 
						End Site
						{
							OFFSET 0.0 0.0 0.0
						}
					}
				}
				JOINT Shoulder_L
				{
					OFFSET 12.9942 -0.242716 4.98039
					CHANNELS 6 Xposition Yposition Zposition Zrotation Xrotation Yrotation 
					JOINT UpperArm_L
					{
						OFFSET 5.34809 0.0 0.0
						CHANNELS 6 Xposition Yposition Zposition Zrotation Xrotation Yrotation 
						JOINT LowerArm_L
						{
							OFFSET 24.3286 1.87007e-05 0.0
							CHANNELS 6 Xposition Yposition Zposition Zrotation Xrotation Yrotation 
							JOINT Hand_L
							{
								OFFSET 22.2916 0.0 0.0
								CHANNELS 6 Xposition Yposition Zposition Zrotation Xrotation Yrotation 
								End Site
								{
									OFFSET 0.0 0.0 0.0
								}
							}
						}
					}
				}
				JOINT Shoulder_R
				{
					OFFSET 12.9945 -0.242716 -4.98039
					CHANNELS 6 Xposition Yposition Zposition Zrotation Xrotation Yrotation 
					JOINT UpperArm_R
					{
						OFFSET -5.34813 0.0 0.0
						CHANNELS 6 Xposition Yposition Zposition Zrotation Xrotation Yrotation 
						JOINT LowerArm_R
						{
							OFFSET -24.3289 0.000322201 0.0
							CHANNELS 6 Xposition Yposition Zposition Zrotation Xrotation Yrotation 
							JOINT Hand_R
							{
								OFFSET -22.2915 -0.000108084 0.0
								CHANNELS 6 Xposition Yposition Zposition Zrotation Xrotation Yrotation 
								End Site
								{
									OFFSET 0.0 0.0 0.0
								}
							}
						}
					}
				}
			}
		}
		JOINT UpperLeg_L
		{
			OFFSET -2.19248 -6.46944 0.0
			CHANNELS 6 Xposition Yposition Zposition Zrotation Xrotation Yrotation 
			JOINT LowerLeg_L
			{
				OFFSET 39.0811 0.0 -1.23785e-05
				CHANNELS 6 Xposition Yposition Zposition Zrotation Xrotation Yrotation 
				JOINT Foot_L
				{
					OFFSET 40.9854 0.0 -1.26872e-05
					CHANNELS 6 Xposition Yposition Zposition Zrotation Xrotation Yrotation 
					JOINT Toes_L
					{
						OFFSET 11.7543 0.0 0.0
						CHANNELS 6 Xposition Yposition Zposition Zrotation Xrotation Yrotation 
						End Site
						{
							OFFSET 0.0 0.0 0.0
						}
					}
				}
			}
		}
		JOINT UpperLeg_R
		{
			OFFSET -2.19251 6.46944 0.0
			CHANNELS 6 Xposition Yposition Zposition Zrotation Xrotation Yrotation 
			JOINT LowerLeg_R
			{
				OFFSET -39.0811 -0.00228153 -0.0401928
				CHANNELS 6 Xposition Yposition Zposition Zrotation Xrotation Yrotation 
				JOINT Foot_R
				{
					OFFSET -40.9854 0.0 0.0
					CHANNELS 6 Xposition Yposition Zposition Zrotation Xrotation Yrotation 
					JOINT Toes_R
					{
						OFFSET -11.7543 0.0 0.0
						CHANNELS 6 Xposition Yposition Zposition Zrotation Xrotation Yrotation 
						End Site
						{
							OFFSET 0.0 0.0 0.0
						}
					}
				}
			}
		}
	}
}
MOTION
Frames:	4
Frame Time:	0.0333333
0.000000 0.000000 0.000000 0.000000 0.000000 -0.000000 -2.240970 86.202900 -53.484100 90.576200 -9.891370 -2.743770 15.735700 0.000005 -0.000001 133.566000 80.943900 -134.933000 8.984550 -0.406207 -0.000000 5.613600 12.479500 -3.353560 16.377300 -0.000001 -0.000001 -1.055870 -3.221070 0.097017 6.456720 -0.000001 -0.000000 -6.860340 -11.467000 -1.572660 12.994200 -0.242716 4.980390 -84.978500 -9.741180 -62.559500 5.348090 -0.000007 -0.000001 -64.167200 23.340800 32.276700 24.328600 0.000019 0.000005 19.708000 2.123070 -84.094600 22.291600 -0.000001 0.000005 -0.487228 5.510660 -6.955050 12.994500 -0.242716 -4.980390 90.131200 -1.010540 -82.714300 -5.348130 -0.000001 -0.000004 -48.608000 21.998300 -57.389000 -24.328900 0.000322 -0.000009 -8.069010 3.375210 -112.553000 -22.291500 -0.000108 -0.000004 26.134200 5.600780 -11.390700 -2.192480 -6.469440 -0.000000 175.482000 -13.638500 -41.332500 39.081100 -0.000007 -0.000012 0.247533 -0.336125 36.369300 40.985400 -0.000006 -0.000013 3.598810 -4.661630 -63.955700 11.754300 -0.000000 0.000003 -0.010051 -0.104029 -20.815400 -2.192510 6.469440 -0.000001 165.082000 13.706500 -170.229000 -39.081100 -0.002282 -0.040193 0.117951 -0.157767 36.009100 -40.985400 0.000008 0.000006 10.553300 20.271900 -61.130100 -11.754300 -0.000006 -0.000006 -0.343204 -0.842230 -54.113400
0.000000 0.000000 0.000000 0.000000 0.000000 -0.000000 -1.659110 84.832500 -46.537800 91.074800 -11.395500 -3.112060 15.735700 0.000005 -0.000001 132.562000 81.442700 -134.562000 8.984550 -0.406207 -0.000000 5.130110 11.599100 -4.527910 16.377300 -0.000001 -0.000001 -2.591120 -2.030690 0.367416 6.456720 -0.000001 -0.000000 -6.295150 -9.950200 -0.915219 12.994200 -0.242716 4.980390 -88.478100 -3.144890 -64.191500 5.348090 -0.000007 -0.000001 -61.410700 18.838500 28.344500 24.328600 0.000019 0.000005 18.200300 0.969920 -87.059800 22.291600 -0.000001 0.000005 2.037100 5.521310 -7.415500 12.994500 -0.242716 -4.980390 89.529000 5.259000 -84.866100 -5.348130 -0.000001 -0.000004 -47.831900 30.619300 -45.471400 -24.328900 0.000322 -0.000009 -9.949820 2.533850 -104.174000 -22.291500 -0.000108 -0.000004 27.005900 5.607090 -11.775500 -2.192480 -6.469440 -0.000000 174.191000 -17.162600 -43.626200 39.081100 -0.000007 -0.000012 0.106271 -0.108490 44.407200 40.985400 -0.000006 -0.000013 3.979090 -4.397040 -55.723700 11.754300 -0.000000 0.000003 -0.002045 -0.029283 -17.767500 -2.192510 6.469440 -0.000001 163.557000 11.376800 -171.702000 -39.081100 -0.002282 -0.040193 0.221908 -0.246024 41.626700 -40.985400 0.000008 0.000006 11.635700 19.999000 -52.306500 -11.754300 -0.000006 -0.000006 -0.515587 -1.009730 -63.871200
0.000000 0.000000 0.000000 0.000000 0.000000 -0.000000 -1.087070 83.864000 -39.432300 90.963800 -10.110500 -0.763103 15.735700 0.000005 -0.000001 123.890000 81.697700 -125.833000 8.984550 -0.406207 -0.000000 6.241210 9.259200 -4.392380 16.377300 -0.000001 -0.000001 -3.730130 -1.597870 0.532417 6.456720 -0.000001 -0.000000 -5.768670 -7.782030 -0.957868 12.994200 -0.242716 4.980390 -91.846100 4.254750 -66.497400 5.348090 -0.000007 -0.000001 -59.337000 16.802000 19.807200 24.328600 0.000019 0.000005 13.690700 -0.155441 -90.638600 22.291600 -0.000001 0.000005 3.187460 5.539650 -8.216830 12.994500 -0.242716 -4.980390 89.188000 9.709480 -85.197600 -5.348130 -0.000001 -0.000004 -53.853000 36.198100 -29.218300 -24.328900 0.000322 -0.000009 -14.017600 -0.723379 -87.146300 -22.291500 -0.000108 -0.000004 24.811300 5.617930 -12.477700 -2.192480 -6.469440 -0.000000 175.437000 -15.596400 -40.467500 39.081100 -0.000007 -0.000012 -0.178524 0.132110 53.498900 40.985400 -0.000006 -0.000013 3.020490 -4.685250 -65.253000 11.754300 -0.000000 0.000003 -0.000039 -0.000458 -16.595400 -2.192510 6.469440 -0.000001 163.202000 9.473880 -173.047000 -39.081100 -0.002282 -0.040193 0.319457 -0.263658 50.178800 -40.985400 0.000008 0.000006 7.506190 17.336300 -37.321800 -11.754300 -0.000006 -0.000006 -0.278560 -0.761982 -49.934400
0.000000 0.000000 0.000000 0.000000 0.000000 -0.000000 -0.472916 83.732700 -33.387400 92.915300 -5.562450 0.755119 15.735700 0.000005 -0.000001 112.145000 82.190400 -114.739000 8.984550 -0.406207 -0.000000 6.867810 5.888840 -5.539890 16.377300 -0.000001 -0.000001 -3.398350 -2.394150 0.338588 6.456720 -0.000001 -0.000000 -5.245300 -6.860470 0.232437 12.994200 -0.242716 4.980390 -93.028600 7.340520 -67.504200 5.348090 -0.000007 -0.000001 -60.103900 21.600300 0.384749 24.328600 0.000019 0.000005 15.737400 -0.849232 -93.005800 22.291600 -0.000001 0.000005 4.202660 5.567460 -9.565220 12.994500 -0.242716 -4.980390 88.913200 10.213400 -83.893200 -5.348130 -0.000001 -0.000004 -64.845700 35.921300 -12.183600 -24.328900 0.000322 -0.000009 -16.583900 -8.492080 -63.669400 -22.291500 -0.000108 -0.000004 26.551400 5.625330 -12.952900 -2.192480 -6.469440 -0.000000 173.532000 -12.801000 -35.584900 39.081100 -0.000007 -0.000012 -0.322376 0.218325 55.893600 40.985400 -0.000006 -0.000013 3.485190 -3.676260 -70.964300 11.754300 -0.000000 0.000003 -0.000162 -0.001549 -16.636300 -2.192510 6.469440 -0.000001 162.793000 9.536650 -177.227000 -39.081100 -0.002282 -0.040193 0.419116 -0.249636 59.027600 -40.985400 0.000008 0.000006 3.291380 8.471990 -22.671800 -11.754300 -0.000006 -0.000006 -0.021262 -0.174180 -23.691900
